<?xml version="1.0" encoding="utf-8"?>
<!-- Generator: Adobe Illustrator 23.0.4, SVG Export Plug-In . SVG Version: 6.00 Build 0)  -->
<svg version="1.1" id="Layer_1" xmlns="http://www.w3.org/2000/svg" xmlns:xlink="http://www.w3.org/1999/xlink" x="0px" y="0px"
	 viewBox="0 0 500 500" style="enable-background:new 0 0 500 500;" xml:space="preserve">
<style type="text/css">
	.st0{fill-rule:evenodd;clip-rule:evenodd;fill:#1E1E1E;}
</style>
<g>
	<path class="st0" d="M332,210.4L230.9,311.5l-43.8-43.8c-7.5-7.5-19.5-7.5-27,0c-7.5,7.5-7.5,19.5,0,27l57.3,57.3
		c7.5,7.5,19.5,7.5,27,0L359,237.4c7.5-7.5,7.5-19.5,0-27C351.5,203,339.4,203,332,210.4z"/>
	<path class="st0" d="M402.7,116.4H260.2l-32.5-48.8c-3.5-5.3-9.5-8.5-15.9-8.5H97.3C65.6,59.1,40,84.7,40,116.4v267.3
		c0,31.6,25.6,57.3,57.3,57.3h305.5c31.6,0,57.3-25.6,57.3-57.3v-210C460,142,434.4,116.4,402.7,116.4z M421.8,383.6
		c0,10.5-8.5,19.1-19.1,19.1H97.3c-10.5,0-19.1-8.5-19.1-19.1V116.4c0-10.5,8.5-19.1,19.1-19.1h104.3l32.5,48.8
		c3.5,5.3,9.5,8.5,15.9,8.5h152.7c10.5,0,19.1,8.5,19.1,19.1V383.6z"/>
</g>
</svg>
