<?xml version="1.0" encoding="utf-8"?>
<!-- Generator: Adobe Illustrator 23.0.4, SVG Export Plug-In . SVG Version: 6.00 Build 0)  -->
<svg version="1.1" id="Layer_1" xmlns="http://www.w3.org/2000/svg" xmlns:xlink="http://www.w3.org/1999/xlink" x="0px" y="0px"
	 viewBox="0 0 612 400" style="enable-background:new 0 0 612 400;" xml:space="preserve">
<style type="text/css">
	.st0{fill:#010101;}
</style>
<g>
	<path class="st0" d="M79.7,232.5c-6.7-3.9-14.3-5.8-22.8-5.8s-16.1,1.9-22.8,5.8c-6.7,3.9-12,9.4-15.8,16.4
		c-3.8,7.1-5.7,15.2-5.7,24.5c0,9.2,1.9,17.4,5.7,24.5c3.8,7.1,9.1,12.5,15.8,16.4c6.7,3.9,14.3,5.8,22.8,5.8s16.1-1.9,22.8-5.8
		c6.7-3.9,12-9.4,15.8-16.4c3.8-7.1,5.7-15.2,5.7-24.5c0-9.2-1.9-17.4-5.7-24.5C91.7,241.8,86.4,236.4,79.7,232.5z M77,295.7
		c-4.7,5.7-11.4,8.5-20.1,8.5c-8.7,0-15.4-2.8-20.1-8.5c-4.7-5.6-7-13.1-7-22.3c0-9.2,2.3-16.7,7-22.3c4.7-5.6,11.4-8.5,20.1-8.5
		c8.7,0,15.4,2.8,20.1,8.5c4.7,5.7,7,13.1,7,22.3C84,282.6,81.7,290,77,295.7z"/>
	<polygon class="st0" points="106,244.3 131.4,244.3 131.4,318.3 147.8,318.3 147.8,244.3 173.2,244.3 173.2,228.4 106,228.4 	"/>
	<polygon class="st0" points="242.6,264 201.5,264 201.5,228.4 185,228.4 185,318.3 201.5,318.3 201.5,279.4 242.6,279.4 
		242.6,318.3 259,318.3 259,228.4 242.6,228.4 	"/>
	<polygon class="st0" points="295.6,279.4 327.2,279.4 327.2,263.5 295.6,263.5 295.6,244.3 336.3,244.3 336.3,228.4 278.8,228.4 
		278.8,318.3 337.6,318.3 337.6,302.4 295.6,302.4 	"/>
	<path class="st0" d="M411.5,271c2.7-4,4-9.1,4-15.3c0-9-2.8-15.8-8.3-20.3c-5.5-4.6-13.1-6.9-22.7-6.9h-32.9v89.9h16.4v-33.4h16
		h0.6l17.3,33.4h18.4l-20.3-37.7C405.1,278.1,408.9,275,411.5,271z M380.2,271.2h-12.1v-29h12.7c6.2,0,10.6,1.2,13.4,3.7
		s4.1,6,4.1,10.7C398.3,266.3,392.3,271.2,380.2,271.2z"/>
	<path class="st0" d="M457,226.8h-11.1L433.1,300c-0.8,5-1.2,8-1.2,9c0,3.2,0.9,5.7,2.8,7.6c1.9,1.9,4.8,2.9,8.9,2.9h3.8l2.9-8.8
		c-2.6,0-4.4-0.3-5.4-1c-1-0.6-1.5-1.9-1.5-3.9c0-0.6,0.2-2.2,0.6-4.8L457,226.8z"/>
	<polygon class="st0" points="473.7,232.9 471.6,245.1 482.7,245.1 484.8,232.9 	"/>
	<polygon class="st0" points="458.7,318.3 469.8,318.3 480.3,258.5 469.2,258.5 	"/>
	<path class="st0" d="M522.1,257.3c-3.3,0-6.3,0.5-9.1,1.6c-2.8,1.1-5.7,3.1-8.7,5.9l0.4-6.3h-9.4l-10.5,59.8h11.1l7.7-43.4
		c1.7-2.6,3.8-4.6,6.4-5.9c2.6-1.3,5.4-2,8.5-2c3.5,0,6.1,0.9,7.7,2.6c1.7,1.7,2.5,4.5,2.5,8.2c0,1.2-0.4,4.1-1.1,8.7
		c-0.7,4.6-2.6,15.1-5.5,31.6h11.1c2.9-16.5,4.8-27.2,5.6-32.1c0.8-4.9,1.2-8.1,1.2-9.8c0-6.3-1.4-11-4.3-14.3
		C532.8,258.9,528.3,257.3,522.1,257.3z"/>
	<polygon class="st0" points="601.4,258.5 588.2,258.5 564.4,285.5 574.8,226.8 563.7,226.8 547.6,318.3 558.7,318.3 564.1,287.9 
		578.1,318.3 591.1,318.3 575,286.1 	"/>
	<path class="st0" d="M327.1,93.4c1.4-0.2,2.8-0.3,4.2-0.3c6.4,0,12.6,1.7,18.2,4.9c17.3,10,23.3,32.2,13.3,49.5
		c-10,17.3-32.2,23.3-49.5,13.3c-17.3-10-23.3-32.2-13.3-49.5c1.5-2.8,0.5-6.2-2.1-7.9c-2.8-1.8-6.6-1-8.3,1.9
		c-4.2,7.3-6.5,15.7-6.5,24.1c0,26.7,21.6,48.4,48.3,48.4c26.7,0,48.3-21.6,48.3-48.3c0-26.7-21.6-48.3-48.3-48.3
		c-1.9,0-3.8,0.1-5.7,0.3c-3.3,0.4-5.7,3.5-5.3,6.8C320.7,91.5,323.7,93.8,327.1,93.4z"/>
	<path class="st0" d="M283,177.7c1.9,0,3.8-0.1,5.7-0.3c3.3-0.4,5.7-3.5,5.3-6.8c-0.4-3.3-3.5-5.7-6.8-5.3c-1.4,0.2-2.8,0.3-4.2,0.3
		c-6.4,0-12.6-1.7-18.2-4.9c-17.3-10-23.3-32.2-13.3-49.5S283.7,88,301.1,98c17.3,10,23.3,32.2,13.3,49.5c-0.1,0.1-0.2,0.3-0.3,0.4
		c-1.5,3-0.4,6.6,2.6,8.2c3,1.5,6.6,0.4,8.2-2.6c4.3-7.4,6.6-15.9,6.5-24.5c-0.1-26.8-21.8-48.4-48.6-48.4
		c-26.8,0.1-48.4,21.8-48.4,48.6C234.4,156.2,256.2,177.8,283,177.7z"/>
</g>
</svg>
