<?xml version="1.0" encoding="utf-8"?>
<!-- Generator: Adobe Illustrator 23.0.4, SVG Export Plug-In . SVG Version: 6.00 Build 0)  -->
<svg version="1.1" id="Layer_1" xmlns="http://www.w3.org/2000/svg" xmlns:xlink="http://www.w3.org/1999/xlink" x="0px" y="0px"
	 viewBox="0 0 612 400" style="enable-background:new 0 0 612 400;" xml:space="preserve">
<style type="text/css">
	.st0{fill:#010101;}
</style>
<g>
	<path class="st0" d="M116.5,218.3c0,29.7-24.2,53.4-53.4,53.4c-4.2,0-8.4-0.5-12.5-1.4c7,2.3,13.9,3.7,21.8,3.7
		c33.9,0,61.8-26.5,63.6-60.4h-19.5C116.5,215,116.5,216.9,116.5,218.3z"/>
	<path class="st0" d="M63.1,164.8c3.7,0,7,0.5,10.2,0.9v-19.5c-0.5,0-0.5,0-0.9,0c-35.3,0-64.1,28.8-64.1,64.1
		c0,4.6,0.5,8.8,1.4,13.5c0-1.9,0-3.7,0-5.6C9.7,188.5,33.4,164.8,63.1,164.8z"/>
	<path class="st0" d="M103.1,210.4h9.3c-3.3-19-17.2-34.8-35.8-39.9v9.8C90,184.8,100.3,196.4,103.1,210.4z"/>
	<path class="st0" d="M112.8,218.3c0-1.4,0-3.3-0.5-4.6h-8.8c0,1.4,0,3.3,0,4.6c0,22.3-18.1,40.9-40.4,40.9
		c-22.3,0-40.9-18.6-40.9-40.9c0-22.3,18.6-40.4,40.9-40.4c3.7,0,7,0.5,10.2,1.4v-9.8c-3.3-0.5-6.5-0.9-10.2-0.9
		c-27.4,0-49.7,22.3-49.7,49.7c0,27.4,22.3,49.7,49.7,49.7S112.8,245.7,112.8,218.3z"/>
	<path class="st0" d="M209.7,179.3c-5.1-2.9-10.8-4.4-17.2-4.4c-6.4,0-12.1,1.5-17.2,4.4c-5.1,2.9-9,7.1-11.9,12.4
		c-2.9,5.3-4.3,11.5-4.3,18.4c0,7,1.4,13.1,4.3,18.4c2.9,5.3,6.8,9.4,11.9,12.4c5.1,2.9,10.8,4.4,17.2,4.4c6.4,0,12.1-1.5,17.2-4.4
		c5.1-2.9,9-7.1,11.9-12.4c2.9-5.3,4.3-11.5,4.3-18.4c0-7-1.4-13.1-4.3-18.4C218.8,186.4,214.8,182.3,209.7,179.3z M207.7,226.9
		c-3.5,4.3-8.6,6.4-15.1,6.4c-6.6,0-11.6-2.1-15.1-6.4c-3.5-4.3-5.3-9.9-5.3-16.8c0-7,1.8-12.6,5.3-16.8c3.5-4.3,8.6-6.4,15.1-6.4
		c6.6,0,11.6,2.1,15.1,6.4c3.5,4.3,5.3,9.9,5.3,16.8C213,217.1,211.2,222.7,207.7,226.9z"/>
	<polygon class="st0" points="229.5,188.3 248.6,188.3 248.6,243.9 261,243.9 261,188.3 280.1,188.3 280.1,176.3 229.5,176.3 	"/>
	<polygon class="st0" points="332.3,203.1 301.4,203.1 301.4,176.3 289,176.3 289,243.9 301.4,243.9 301.4,214.7 332.3,214.7 
		332.3,243.9 344.7,243.9 344.7,176.3 332.3,176.3 	"/>
	<polygon class="st0" points="372.2,214.7 396,214.7 396,202.7 372.2,202.7 372.2,188.3 402.9,188.3 402.9,176.3 359.6,176.3 
		359.6,243.9 403.8,243.9 403.8,232 372.2,232 	"/>
	<path class="st0" d="M459.5,208.3c2-3,3-6.8,3-11.5c0-6.8-2.1-11.9-6.2-15.3c-4.2-3.4-9.8-5.2-17.1-5.2h-24.7v67.6h12.4v-25.1h12.1
		h0.5l13,25.1h13.8L451,215.5C454.7,213.7,457.5,211.3,459.5,208.3z M435.9,208.5h-9.1v-21.8h9.6c4.6,0,8,0.9,10,2.8
		c2.1,1.8,3.1,4.5,3.1,8.1C449.5,204.8,445,208.5,435.9,208.5z"/>
	<path class="st0" d="M493.7,175.1h-8.4l-9.6,55.1c-0.6,3.8-0.9,6.1-0.9,6.8c0,2.4,0.7,4.3,2.1,5.7c1.4,1.4,3.6,2.2,6.7,2.2h2.8
		l2.2-6.6c-2,0-3.3-0.2-4-0.7c-0.7-0.5-1.1-1.5-1.1-2.9c0-0.5,0.2-1.7,0.5-3.6L493.7,175.1z"/>
	<polygon class="st0" points="506.3,179.7 504.7,188.9 513.1,188.9 514.6,179.7 	"/>
	<polygon class="st0" points="495,243.9 503.3,243.9 511.2,199 502.9,199 	"/>
	<path class="st0" d="M542.7,198c-2.4,0-4.7,0.4-6.8,1.2c-2.1,0.8-4.3,2.3-6.6,4.5l0.3-4.8h-7.1l-7.9,45h8.4l5.8-32.7
		c1.3-2,2.9-3.4,4.8-4.4c1.9-1,4.1-1.5,6.4-1.5c2.6,0,4.6,0.7,5.8,2c1.3,1.3,1.9,3.4,1.9,6.2c0,0.9-0.3,3.1-0.8,6.6
		c-0.6,3.5-1.9,11.4-4.1,23.8h8.4c2.2-12.4,3.6-20.5,4.2-24.1c0.6-3.7,0.9-6.1,0.9-7.3c0-4.7-1.1-8.3-3.2-10.7
		C550.8,199.3,547.4,198,542.7,198z"/>
	<polygon class="st0" points="602.4,199 592.5,199 574.6,219.3 582.4,175.1 574,175.1 561.9,243.9 570.3,243.9 574.3,221.1 
		584.9,243.9 594.7,243.9 582.6,219.7 	"/>
</g>
</svg>
