<?xml version="1.0" encoding="utf-8"?>
<!-- Generator: Adobe Illustrator 23.0.4, SVG Export Plug-In . SVG Version: 6.00 Build 0)  -->
<svg version="1.1" id="Layer_1" xmlns="http://www.w3.org/2000/svg" xmlns:xlink="http://www.w3.org/1999/xlink" x="0px" y="0px"
	 viewBox="0 0 500 500" style="enable-background:new 0 0 500 500;" xml:space="preserve">
<style type="text/css">
	.st0{fill:#15151C;}
</style>
<g>
	
		<ellipse transform="matrix(0.9732 -0.2298 0.2298 0.9732 -84.7776 68.0878)" class="st0" cx="250" cy="398.1" rx="45.1" ry="45.1"/>
	<path class="st0" d="M468.3,170.5C411.7,116.2,334.7,82.7,250,82.7c-84.7,0-161.7,33.4-218.3,87.8c-9,8.6-9.3,22.9-0.7,31.9
		c8.6,9,22.9,9.3,31.9,0.7c48.6-46.6,114.5-75.3,187.1-75.3c72.6,0,138.6,28.6,187.1,75.3c9,8.6,23.2,8.3,31.9-0.7
		C477.6,193.4,477.3,179.1,468.3,170.5z"/>
	<path class="st0" d="M250,172.8c-62.6,0-119.3,25.6-160.1,66.8c-8.8,8.8-8.7,23.1,0.2,31.9c8.8,8.8,23.1,8.7,31.9-0.2
		c32.7-33,78-53.4,128.1-53.4c50.1,0,95.4,20.4,128.1,53.4c8.8,8.8,23,8.9,31.9,0.2c8.8-8.8,8.9-23,0.2-31.9
		C369.3,198.4,312.6,172.8,250,172.8z"/>
	<path class="st0" d="M250,262.9c-40.9,0-77.5,18.2-102.3,46.8c-8.1,9.4-7.1,23.6,2.3,31.8c9.4,8.1,23.6,7.1,31.8-2.3
		c16.6-19.2,41-31.2,68.2-31.2c27.2,0,51.6,12.1,68.2,31.2c8.1,9.4,22.4,10.4,31.8,2.3c9.4-8.1,10.4-22.4,2.3-31.8
		C327.5,281.1,290.9,262.9,250,262.9z"/>
</g>
</svg>
