<?xml version="1.0" encoding="utf-8"?>
<!-- Generator: Adobe Illustrator 23.0.4, SVG Export Plug-In . SVG Version: 6.00 Build 0)  -->
<svg version="1.1" id="Layer_1" xmlns="http://www.w3.org/2000/svg" xmlns:xlink="http://www.w3.org/1999/xlink" x="0px" y="0px"
	 viewBox="0 0 500 500" style="enable-background:new 0 0 500 500;" xml:space="preserve">
<style type="text/css">
	.st0{fill-rule:evenodd;clip-rule:evenodd;fill:#15151C;}
</style>
<g>
	<circle class="st0" cx="250" cy="378.9" r="43"/>
	<path class="st0" d="M230.1,121.8c6.5-0.5,13.2-0.8,19.9-0.8c69.3,0,132.1,27.3,178.5,71.8c8.6,8.2,22.2,7.9,30.4-0.6
		c8.2-8.6,7.9-22.2-0.6-30.4C404.2,110,330.8,78.1,250,78.1c-7.8,0-15.5,0.3-23.1,0.9c-11.8,0.9-20.7,11.2-19.8,23.1
		C208,113.9,218.3,122.7,230.1,121.8z"/>
	<path class="st0" d="M297.7,169.4c-11.6-2.6-23.1,4.6-25.7,16.2c-2.6,11.6,4.6,23.1,16.2,25.7c6.5,1.5,12.9,3.3,19.1,5.5
		c24.7,8.7,46.8,22.9,64.8,41.2c8.3,8.4,22,8.5,30.4,0.1c8.4-8.3,8.5-22,0.1-30.4c-22.5-22.8-50.2-40.5-81.1-51.4
		C313.8,173.5,305.9,171.2,297.7,169.4z"/>
	<path class="st0" d="M458.6,428.2L71.8,41.4c-8.4-8.4-22-8.4-30.4,0c-8.4,8.4-8.4,22,0,30.4l50.9,50.9
		c-18.2,11.2-35.2,24.4-50.6,39.1c-8.6,8.2-8.8,21.8-0.6,30.4c8.2,8.6,21.8,8.8,30.4,0.6c15.6-15,33.2-28.1,52.2-38.8l31.8,31.8
		c-21.7,10.6-41.4,24.8-58.2,41.8c-8.3,8.4-8.3,22,0.1,30.4c8.4,8.3,22,8.3,30.4-0.1c16.9-17.1,37.4-30.7,60.2-39.5l34.4,34.4
		c-27.8,6-52.2,21-70.1,41.7c-7.8,9-6.8,22.5,2.2,30.3c9,7.8,22.5,6.8,30.3-2.2c15.8-18.3,39.1-29.8,65-29.8c4.7,0,9.2,0.4,13.7,1.1
		l164.5,164.5c8.4,8.4,22,8.4,30.4,0C466.9,450.2,466.9,436.6,458.6,428.2z"/>
</g>
</svg>
